<svg width="48" height="26" viewBox="0 0 48 26" fill="none" xmlns="http://www.w3.org/2000/svg">
<path d="M0 2C0 0.895431 0.895431 0 2 0H46C47.1046 0 48 0.895431 48 2V6C48 7.10457 47.1046 8 46 8H2C0.895432 8 0 7.10457 0 6V2Z" fill="white"/>
<path d="M0 20C0 18.8954 0.895431 18 2 18H46C47.1046 18 48 18.8954 48 20V24C48 25.1046 47.1046 26 46 26H2C0.895432 26 0 25.1046 0 24V20Z" fill="white"/>
<path d="M0 11C0 9.89543 0.895431 9 2 9H46C47.1046 9 48 9.89543 48 11V15C48 16.1046 47.1046 17 46 17H2C0.895432 17 0 16.1046 0 15V11Z" fill="white"/>
</svg>
